<svg width="223" height="88" viewBox="0 0 223 88" fill="none" xmlns="http://www.w3.org/2000/svg">
<path d="M187.877 76.7069C182.995 76.7069 178.445 75.833 174.227 74.0853C170.068 72.3376 166.392 69.8968 163.198 66.7629C160.064 63.6291 157.593 59.9528 155.785 55.7341C154.037 51.5155 153.164 46.9051 153.164 41.903C153.164 36.9008 154.037 32.2905 155.785 28.0718C157.593 23.7929 160.064 20.1166 163.198 17.043C166.332 13.9092 170.008 11.4985 174.227 9.81103C178.445 8.06331 182.995 7.18944 187.877 7.18944C192.819 7.18944 197.369 8.06331 201.527 9.81103C205.746 11.4985 209.422 13.9092 212.556 17.043C215.75 20.1769 218.221 23.8531 219.969 28.0718C221.717 32.2905 222.591 36.9008 222.591 41.903C222.591 46.9051 221.687 51.5155 219.879 55.7341C218.131 59.9528 215.69 63.6291 212.556 66.7629C209.422 69.8968 205.746 72.3376 201.527 74.0853C197.309 75.833 192.759 76.7069 187.877 76.7069ZM187.877 66.9437C191.372 66.9437 194.567 66.3109 197.459 65.0453C200.412 63.7797 202.974 62.032 205.143 59.8021C207.313 57.512 209 54.8603 210.206 51.847C211.411 48.7734 212.014 45.4587 212.014 41.903C212.014 38.3472 211.411 35.0627 210.206 32.0494C209 29.0361 207.313 26.3843 205.143 24.0942C202.974 21.8041 200.412 20.0262 197.459 18.7606C194.567 17.495 191.372 16.8622 187.877 16.8622C184.382 16.8622 181.157 17.495 178.204 18.7606C175.311 20.0262 172.78 21.8041 170.611 24.0942C168.441 26.3843 166.754 29.0361 165.548 32.0494C164.403 35.0627 163.831 38.3472 163.831 41.903C163.831 45.4587 164.403 48.7734 165.548 51.847C166.754 54.8603 168.441 57.512 170.611 59.8021C172.78 62.032 175.342 63.7797 178.295 65.0453C181.248 66.3109 184.442 66.9437 187.877 66.9437Z" fill="url(#paint0_radial_11_14597)"/>
<path d="M48.8368 17.5581H36.6785C36.6785 31.3577 25.8597 42.5036 12.4649 42.5036V0.892334H0.409668V69.6783H12.4649V55.0294C18.338 55.0294 23.902 53.5433 28.7447 50.9957C33.6904 55.7725 36.6785 62.5662 36.6785 69.6783H48.8368C48.8368 59.8063 45.1275 50.4649 38.6362 43.459C44.9214 36.7714 48.8368 27.6424 48.8368 17.5581Z" fill="url(#paint1_radial_11_14597)"/>
<path d="M137.935 18.3778L124.643 53.7262L111.455 18.3778H98.8843L118.358 70.4981L112.073 87.1638H124.643L150.506 18.3778H137.935Z" fill="url(#paint2_radial_11_14597)"/>
<path d="M61.783 40.3792C63.6377 34.2225 69.4077 29.7641 76.3112 29.7641C83.2146 29.7641 88.9847 34.3286 90.8393 40.3792H61.783ZM76.3112 17.9814C61.2679 17.9814 49.0065 29.7641 49.0065 44.413C49.0065 59.0619 61.2679 70.8446 76.3112 70.8446C83.2146 70.8446 89.4998 68.4032 94.3425 64.2633L86.0996 55.7712C83.4207 57.8942 80.0205 59.168 76.3112 59.168C70.232 59.168 64.8741 55.665 62.5043 50.5698H102.792C103.307 48.5529 103.513 46.536 103.513 44.413C103.616 29.8703 91.4575 17.9814 76.3112 17.9814Z" fill="url(#paint3_radial_11_14597)"/>
<defs>
<radialGradient id="paint0_radial_11_14597" cx="0" cy="0" r="1" gradientUnits="userSpaceOnUse" gradientTransform="translate(222.486 44.6616) rotate(180) scale(274.339 715.804)">
<stop stop-color="#15DBB9"/>
<stop offset="0.770823" stop-color="#06010D"/>
</radialGradient>
<radialGradient id="paint1_radial_11_14597" cx="0" cy="0" r="1" gradientUnits="userSpaceOnUse" gradientTransform="translate(222.486 44.6616) rotate(180) scale(274.339 715.804)">
<stop stop-color="#15DBB9"/>
<stop offset="0.770823" stop-color="#06010D"/>
</radialGradient>
<radialGradient id="paint2_radial_11_14597" cx="0" cy="0" r="1" gradientUnits="userSpaceOnUse" gradientTransform="translate(222.486 44.6616) rotate(180) scale(274.339 715.804)">
<stop stop-color="#15DBB9"/>
<stop offset="0.770823" stop-color="#06010D"/>
</radialGradient>
<radialGradient id="paint3_radial_11_14597" cx="0" cy="0" r="1" gradientUnits="userSpaceOnUse" gradientTransform="translate(222.486 44.6616) rotate(180) scale(274.339 715.804)">
<stop stop-color="#15DBB9"/>
<stop offset="0.770823" stop-color="#06010D"/>
</radialGradient>
</defs>
</svg>
