<svg width="84" height="34" viewBox="0 0 84 34" fill="none" xmlns="http://www.w3.org/2000/svg">
<path d="M70.8758 29.3549C69.0303 29.3549 67.31 29.0245 65.715 28.3637C64.1429 27.703 62.753 26.7802 61.5454 25.5954C60.3606 24.4105 59.4264 23.0207 58.7428 21.4257C58.0821 19.8308 57.7517 18.0877 57.7517 16.1966C57.7517 14.3054 58.0821 12.5623 58.7428 10.9674C59.4264 9.34967 60.3606 7.95978 61.5454 6.79775C62.7302 5.61293 64.1201 4.70153 65.715 4.06355C67.31 3.40278 69.0303 3.0724 70.8758 3.0724C72.7442 3.0724 74.4645 3.40278 76.0366 4.06355C77.6316 4.70153 79.0215 5.61293 80.2063 6.79775C81.4139 7.98257 82.3481 9.37245 83.0088 10.9674C83.6696 12.5623 84 14.3054 84 16.1966C84 18.0877 83.6582 19.8308 82.9747 21.4257C82.3139 23.0207 81.3911 24.4105 80.2063 25.5954C79.0215 26.7802 77.6316 27.703 76.0366 28.3637C74.4417 29.0245 72.7214 29.3549 70.8758 29.3549ZM70.8758 25.6637C72.1974 25.6637 73.405 25.4245 74.4987 24.946C75.6151 24.4675 76.5835 23.8067 77.4037 22.9637C78.224 22.0979 78.862 21.0953 79.3177 19.9561C79.7734 18.794 80.0012 17.5409 80.0012 16.1966C80.0012 14.8522 79.7734 13.6105 79.3177 12.4712C78.862 11.332 78.224 10.3294 77.4037 9.46359C76.5835 8.59776 75.6151 7.9256 74.4987 7.44712C73.405 6.96863 72.1974 6.72939 70.8758 6.72939C69.5543 6.72939 68.3353 6.96863 67.2189 7.44712C66.1252 7.9256 65.1682 8.59776 64.3479 9.46359C63.5277 10.3294 62.8897 11.332 62.434 12.4712C62.0011 13.6105 61.7846 14.8522 61.7846 16.1966C61.7846 17.5409 62.0011 18.794 62.434 19.9561C62.8897 21.0953 63.5277 22.0979 64.3479 22.9637C65.1682 23.8067 66.1366 24.4675 67.253 24.946C68.3695 25.4245 69.5771 25.6637 70.8758 25.6637Z" fill="url(#paint0_radial_14_238)"/>
<path d="M18.3088 6.99247H13.7122C13.7122 12.2097 9.62188 16.4236 4.55773 16.4236V0.69165H0V26.6976H4.55773V21.1593C6.77817 21.1593 8.88174 20.5974 10.7126 19.6342C12.5825 21.4402 13.7122 24.0087 13.7122 26.6976H18.3088C18.3088 22.9653 16.9065 19.4336 14.4523 16.7848C16.8286 14.2565 18.3088 10.8051 18.3088 6.99247Z" fill="url(#paint1_radial_14_238)"/>
<path d="M51.9943 7.3024L46.9691 20.6666L41.9828 7.3024H37.2303L44.5928 27.0075L42.2166 33.3083H46.9691L56.7468 7.3024H51.9943Z" fill="url(#paint2_radial_14_238)"/>
<path d="M23.2034 15.6205C23.9046 13.2928 26.0861 11.6072 28.6961 11.6072C31.3061 11.6072 33.4876 13.3329 34.1888 15.6205H23.2034ZM28.6961 7.1525C23.0087 7.1525 18.373 11.6072 18.373 17.1455C18.373 22.6838 23.0087 27.1385 28.6961 27.1385C31.3061 27.1385 33.6823 26.2155 35.5132 24.6503L32.3968 21.4397C31.384 22.2424 30.0985 22.724 28.6961 22.724C26.3978 22.724 24.3721 21.3996 23.4761 19.4732H38.7075C38.9023 18.7107 38.9802 17.9482 38.9802 17.1455C39.0192 11.6474 34.4225 7.1525 28.6961 7.1525Z" fill="url(#paint3_radial_14_238)"/>
<defs>
<radialGradient id="paint0_radial_14_238" cx="0" cy="0" r="1" gradientUnits="userSpaceOnUse" gradientTransform="translate(83.9606 17.2395) rotate(180) scale(103.72 270.624)">
<stop stop-color="#15DBB9"/>
<stop offset="0.770823" stop-color="#06010D"/>
</radialGradient>
<radialGradient id="paint1_radial_14_238" cx="0" cy="0" r="1" gradientUnits="userSpaceOnUse" gradientTransform="translate(83.9606 17.2395) rotate(180) scale(103.72 270.624)">
<stop stop-color="#15DBB9"/>
<stop offset="0.770823" stop-color="#06010D"/>
</radialGradient>
<radialGradient id="paint2_radial_14_238" cx="0" cy="0" r="1" gradientUnits="userSpaceOnUse" gradientTransform="translate(83.9606 17.2395) rotate(180) scale(103.72 270.624)">
<stop stop-color="#15DBB9"/>
<stop offset="0.770823" stop-color="#06010D"/>
</radialGradient>
<radialGradient id="paint3_radial_14_238" cx="0" cy="0" r="1" gradientUnits="userSpaceOnUse" gradientTransform="translate(83.9606 17.2395) rotate(180) scale(103.72 270.624)">
<stop stop-color="#15DBB9"/>
<stop offset="0.770823" stop-color="#06010D"/>
</radialGradient>
</defs>
</svg>
