<svg width="529" height="147" viewBox="0 0 529 147" fill="none" xmlns="http://www.w3.org/2000/svg">
<g clip-path="url(#clip0_3494_508)">
<path d="M258.568 29.3961H237.793C237.793 52.9756 219.307 72.0206 196.419 72.0206V0.919312H175.82V118.454H196.419V93.4236C206.455 93.4236 215.962 90.8842 224.236 86.5311C232.687 94.6932 237.793 106.302 237.793 118.454H258.568C258.568 101.586 252.23 85.6242 241.138 73.6531C251.878 62.2261 258.568 46.6273 258.568 29.3961Z" fill="#317B76"/>
<path d="M123.555 99.1991C109.118 99.1991 97.4983 87.9535 97.4983 73.9872C97.4983 60.0209 109.118 48.7753 123.555 48.7753C137.992 48.7753 149.612 60.0209 149.612 73.9872C149.612 87.7721 137.992 99.1991 123.555 99.1991ZM149.612 36.4414C142.217 31.5441 133.238 28.8234 123.555 28.8234C97.8504 28.8234 76.8994 49.138 76.8994 73.9872C76.8994 99.0177 97.8504 119.151 123.555 119.151C133.238 119.151 142.217 116.249 149.612 111.533V118.425H170.21V29.3675H149.612V36.4414Z" fill="#317B76"/>
<path d="M507.498 29.3853L484.786 89.7851L462.251 29.3853H440.771L474.047 118.443L463.307 146.92H484.786L528.977 29.3853H507.498Z" fill="#317B76"/>
<path d="M279.462 66.9794C282.631 56.4593 292.49 48.8413 304.286 48.8413C316.082 48.8413 325.942 56.6407 329.111 66.9794H279.462ZM304.286 28.708C278.582 28.708 257.631 48.8413 257.631 73.8718C257.631 98.9024 278.582 119.036 304.286 119.036C316.082 119.036 326.822 114.864 335.097 107.79L321.012 93.2796C316.434 96.9072 310.624 99.0838 304.286 99.0838C293.899 99.0838 284.744 93.0982 280.695 84.3919H346.364H349.533C350.414 80.9457 350.766 77.4995 350.766 73.8718C350.942 49.0227 329.991 28.708 304.286 28.708Z" fill="#317B76"/>
<path d="M377.375 66.9792C380.544 56.4591 390.404 48.8412 402.199 48.8412C413.995 48.8412 423.855 56.6405 427.024 66.9792H377.375ZM402.199 28.7079C376.495 28.7079 355.544 48.8412 355.544 73.8717C355.544 98.9023 376.495 119.036 402.199 119.036C413.995 119.036 424.735 114.864 433.01 107.79L418.925 93.2795C414.347 96.9071 408.538 99.0836 402.199 99.0836C391.812 99.0836 382.657 93.0981 378.608 84.3918H444.277H447.446C448.327 80.9456 448.679 77.4993 448.679 73.8717C448.855 49.0225 428.08 28.7079 402.199 28.7079Z" fill="#317B76"/>
<path d="M73.333 1.1308L49.3891 57.903L25.269 1.1308H0.796875L37.0649 86.924L23.8606 117.94H48.5088L97.8052 1.1308H73.333Z" fill="#317B76"/>
</g>
<defs>
<clipPath id="clip0_3494_508">
<rect width="529" height="147" fill="white"/>
</clipPath>
</defs>
</svg>
